<svg xmlns="http://www.w3.org/2000/svg" viewBox="0 0 1440 1026.83"><defs><style>.cls-1{fill:#e8858c;}.cls-2{fill:none;stroke:#e8858c;stroke-miterlimit:10;}</style></defs><title>orca</title><g id="Layer_1" data-name="Layer 1"><path class="cls-1" d="M1426.37,302a136.7,136.7,0,0,0,29.38,7.79v857.05H-75.13V247.66c15,5.17,33.56,7.54,56.16,7.21q3.9-.06,7.86-.21c24-3.33,46.92-5.71,69-7.17l11.65-1.66c35.64-5.1,69.3-9.92,95.5-7.53,32,2.91,62.63,7.68,92.21,12.29C321.91,260.67,383,270.18,453,260.36c74.71-10.48,140.55-4.8,212.76,3.1,101,11.05,176.16,9.46,277.29-5.85,20.69-3.14,42-6.64,62.68-10,63-10.34,128.22-21,191-24.22q6.72-.35,13.25-.35c4.11,0,8.16.1,12.18.31,28.39-2.27,55.95-.63,81.66,8.2,28.76,9.86,54.06,27.62,78.53,44.79,9.15,6.42,18.46,12.95,28,19.1C1415.53,297.67,1420.87,299.88,1426.37,302Z"/></g><g id="block"><path class="cls-2" d="M-91.95,113.85h-.12v-.13A6,6,0,0,1-90,109.44C-81.33,101-45,94.41,18,90c53.27-3.75,126.87-6.07,218.75-6.91,166.37-1.51,359.37,2.11,474.68,4.28,50.47.94,86.93,1.63,102.34,1.55,70.1-.34,141.3,1.11,210.15,2.5,90.24,1.84,183.55,3.73,275.48,1.62,88.95-2,179.51-6,276.85-12.2,11.2-.71,22.41-1.59,34.29-2.51,34.83-2.73,70.84-5.55,106.21-3.92,40.11,1.85,73.22,9.33,101.23,22.87l.43.2-.47,0c-181.59,13.65-366.59,8.87-545.5,4.24C1181.57,99.38,1088.79,97,995.93,97c-56.77,0-113.55.9-170,3.25C524.31,112.81,219.65,113.85-91.95,113.85ZM320.73,83c-28.42,0-56.56.11-84,.36C36,85.14-73.88,94-89.8,109.62a5.89,5.89,0,0,0-2,4c311.55,0,616.16-1,917.76-13.62,148.73-6.2,300.1-2.28,446.49,1.51,90.76,2.34,183.11,4.73,275.77,4.73,89.82,0,179.92-2.24,269.22-8.94-27.88-13.39-60.83-20.79-100.7-22.63-35.35-1.63-71.36,1.19-106.18,3.91-11.88.93-23.1,1.81-34.29,2.52-97.35,6.16-187.91,10.16-276.87,12.2-91.93,2.11-185.24.21-275.48-1.62-68.85-1.4-140-2.85-210.15-2.5-15.41.07-51.87-.61-102.34-1.56C615.12,85.78,464.62,83,320.73,83Z"/><path class="cls-2" d="M1454.33,142.77c-89.31,0-179.25-2.61-266.72-5.15-87.9-2.56-178.27-5.18-268.39-5.18q-30,0-60,.42c-21.46.31-93.29.69-188.4.95-148.6,4.29-298.68,2.64-446.6-.12C62.08,133-88.28,131.45-92,127.82a.32.32,0,0,1-.1-.23v-.12h.13c68.93.94,139.38,2.39,207.52,3.8q54,1.11,108.47,2.16,60.42.25,131.58.35c32.93.05,66.12.07,98.87.07,77.21,0,152.09-.12,216.37-.29q84.18-2.43,167.53-7.66c99.65-6.41,201.79-5.28,300.57-4.18,61.65.68,125.39,1.39,187.79.24,93.39-1.7,171.21-3.49,251.54-9.58,16.09-1.22,32.9-3.17,50.69-5.23,34-3.93,69.17-8,103.51-7.47,39.07.61,70.63,7.27,96.48,20.37l.37.19-.41.05c-51.52,7.15-104,12.42-160.57,16.12-50.37,3.3-102.8,5.27-160.28,6Q1481.29,142.77,1454.33,142.77ZM919.22,132.19c90.13,0,180.48,2.62,268.39,5.17,105.06,3,213.68,6.21,320.48,4.82,119.54-1.56,224.35-8.78,320.41-22.08-25.74-13-57.15-19.56-96-20.16-34.33-.53-69.48,3.54-103.48,7.47-17.8,2.06-34.61,4-50.71,5.22-80.33,6.09-158.15,7.88-251.55,9.59-62.4,1.14-126.15.43-187.8-.25-98.77-1.09-200.9-2.23-300.55,4.19q-78.57,5.06-158.07,7.37c90.4-.26,158.17-.63,178.92-.93Q889.19,132.17,919.22,132.19Zm-677.43,1.57c138.88,2.5,279.57,3.85,419,.08-89.69.23-198.59.35-305.15.2C318.46,134,279.93,133.9,241.79,133.76Zm-333.46-6c5,2.82,109.43,4.77,298.34,5.63q-45.73-.88-91.1-1.84C47.53,130.12-22.83,128.67-91.67,127.73Z"/><path class="cls-2" d="M1537.39,179.78c-43.94,0-87.21-5.8-129.25-11.44-28-3.74-56.86-7.62-85.76-9.78-114.15-8.54-283.94-16.35-444.58-5.1-156.14,10.93-319.07,17.61-484.26,19.85C237,175.43,73.66,173.63-91.95,168h-.34l.26-.22c82-67.79,215.12-44.84,332.54-24.6,46.67,8.05,90.76,15.65,128.1,16.93,136.09,4.66,273.44-2.2,406.26-8.83,35.24-1.76,71.68-3.58,107.61-5.16q89.68-3.94,176.48-3.95c107.56,0,211.29,4.55,310,13.63,74.39,6.85,139.22,2.75,223.76-14.14l11.18-2.25c72.45-14.62,171.67-34.65,236.81,4.47l.34.21-.4,0c-43.35,3.37-87.05,10.24-129.31,16.89-49.48,7.78-100.64,15.82-151.53,18.29Q1548.57,179.79,1537.39,179.78Zm-487.47-32.17c102.37,0,198.95,5.2,272.47,10.69,28.92,2.17,57.83,6,85.79,9.79,49.16,6.59,100,13.41,151.62,10.9,50.88-2.46,102-10.51,151.5-18.29,42.14-6.62,85.71-13.48,128.93-16.85-65.06-38.79-164-18.83-236.28-4.24l-11.18,2.25c-84.57,16.89-149.42,21-223.84,14.15-151.72-14-315.38-17.22-486.43-9.69-35.94,1.59-72.38,3.41-107.62,5.16-132.83,6.64-270.18,13.5-406.27,8.83-37.37-1.28-81.46-8.88-128.15-16.93C123.22,123.17-9.64,100.26-91.6,167.72c120.58,4.12,240,6.2,356.4,6.2q65,0,128.73-.87c165.2-2.24,328.12-8.92,484.25-19.85C935,149.2,993.33,147.61,1049.92,147.61Z"/><path class="cls-2" d="M1494.52,214.7l-3.35,0c-31-.38-61.45-6-97.73-14.36-69.91-16.08-134.52-14.21-202.92-12.22-25,.72-50.9,1.47-77.26,1.3-21.21-.14-42.71-.91-63.51-1.65-44.57-1.6-90.66-3.24-135.88,1.25-100.46,10-202.26,10.78-300.7,11.56-57.15.45-116.26.91-174.61,3.16-56.26,2.17-112.95-1.95-167.77-5.94-33.9-2.46-69-5-103.59-6.05-40-1.2-80.49.64-119.67,2.42-45.67,2.08-92.9,4.22-139.48,1.56h-.18l.07-.16a58.43,58.43,0,0,1,19.59-25.79c8.63-6.62,19.79-12,33.18-15.93,24.26-7.17,55.63-10,95.9-8.61,73.33,2.5,161.12,18.8,231.66,31.91,50.86,9.44,94.78,17.6,118.16,17.71,81.84.36,168.59-2.1,265.22-7.54,95.65-5.38,191.47-13.22,264.27-19.44,50.12-4.29,100.12-6.42,149.48-6.42,116.31,0,229.16,11.82,332.35,35.09,69.1,15.58,109,1,164.35-19.12,15.34-5.59,31.21-11.37,49.4-17.16,42.88-13.68,81.26-21.46,114.09-23.15,48.33-2.49,84.2,8.25,106.61,31.91l.3.32-.43-.1a270.27,270.27,0,0,0-59.75-7.71,360.5,360.5,0,0,0-59,3.91c-39.15,5.62-78.43,16.53-116.41,27.07-9.37,2.6-19.07,5.29-28.58,7.85C1551.13,210.35,1522.83,214.7,1494.52,214.7Zm-237.76-28.14c45,0,89.67,2.69,136.74,13.52,36.26,8.34,66.75,14,97.67,14.34,29.43.36,58.45-3.93,97-14.32,9.51-2.56,19.2-5.25,28.57-7.85,38-10.55,77.27-21.46,116.45-27.08a359.79,359.79,0,0,1,59.09-3.92,271.34,271.34,0,0,1,59.38,7.61c-22.37-23.39-58.06-34-106.11-31.52-32.8,1.69-71.17,9.47-114,23.14-18.18,5.8-34,11.57-49.39,17.16-39.09,14.24-70.52,25.68-110,25.69-16.41,0-34.21-2-54.53-6.57-147-33.13-313.54-43-481.75-28.66-72.8,6.22-168.62,14.06-264.28,19.44C575,193,488.27,195.45,406.43,195.08c-23.4-.1-67.34-8.26-118.2-17.71C217.69,164.27,129.91,148,56.6,145.46c-40.24-1.37-71.58,1.44-95.81,8.6C-52.57,158-63.71,163.35-72.32,170a58.17,58.17,0,0,0-19.44,25.52c46.51,2.64,93.67.5,139.27-1.58,39.2-1.78,79.73-3.62,119.7-2.42,34.64,1.05,69.7,3.59,103.6,6.06,54.81,4,111.49,8.1,167.74,5.94,58.36-2.25,117.46-2.72,174.62-3.17,98.44-.77,200.22-1.58,300.67-11.55,45.24-4.5,91.34-2.85,135.92-1.26,20.79.74,42.3,1.51,63.5,1.65,26.36.17,52.23-.57,77.25-1.3C1212.89,187.19,1234.87,186.56,1256.76,186.56Z"/><path class="cls-2" d="M1727.89,189.37l-.86.1c-.67.06-1.35.14-2,.22-32.43,3.91-59.52,16.55-88.21,29.93-7.18,3.35-14.61,6.81-22.1,10.12-57,25.13-105.25,46.44-159,40-20.46-2.46-41.7-8.94-64.49-20.77a430.64,430.64,0,0,0-106.33-38.51c-34-7.56-69.73-11.57-109.23-12.25q-6-.1-12.07-.1c-67.8,0-137.42,9.55-214.36,21-17.18,2.57-34.41,7.59-51.08,12.44-8.89,2.59-17.91,5.21-27,7.48l-1.16.29,1.2,0,1.17-.29c8.71-2.21,17.35-4.72,25.87-7.2,16.66-4.84,33.88-9.86,51-12.42,81.5-12.19,154.78-22.19,226.39-21,39.48.67,75.19,4.68,109.17,12.24a430.4,430.4,0,0,1,106.27,38.48C1414,261,1435.27,267.52,1455.75,270a161.94,161.94,0,0,0,19.55,1.17c46.17,0,89.5-19.12,139.5-41.18,7.5-3.31,14.93-6.77,22.11-10.12,28.67-13.37,55.75-26,88.13-29.9l1.18-.13c.28,0,.57-.07.85-.09,14.65-1.58,29.43-1.09,44.06.09l.93-.18C1757.41,188.43,1742.59,187.88,1727.89,189.37Zm-354.41,33.24c26,9.28,52.85,18.86,82.27,26.76q4.38,1.19,8.84,2.31c11.85,3,24.54,3.67,38.79,2.06,12.7-1.44,26.36-4.67,41.77-9.88,28.63-9.69,59.22-25,88.8-39.77,24.43-12.22,49.34-24.67,73.71-34.3l1.32-.51-1.39.27-1.3.52c-24,9.55-48.45,21.79-72.46,33.79-29.57,14.79-60.15,30.08-88.76,39.76-15.39,5.2-29,8.43-41.72,9.86-14.22,1.61-26.87.94-38.69-2-3-.76-6-1.53-8.91-2.33-29.39-7.9-56.18-17.47-82.18-26.74-43.65-15.58-85.55-30.54-134.12-35.44l-2.34-.22-2.36,0,2.43.22C1286.68,191.63,1329.18,206.8,1373.48,222.61Zm492.33-29c-9.46-12-19.7-21.28-31-28l-.65-.38a93.61,93.61,0,0,0-17.76-8c-16.83-5.59-35.45-6.54-56.91-2.93-16.76,2.82-34.18,8.32-51.89,15.31l-1.3.52c-24,9.55-48.45,21.79-72.46,33.79-29.57,14.79-60.15,30.08-88.76,39.76-15.39,5.2-29,8.43-41.72,9.86-14.22,1.61-26.87.94-38.69-2-3-.76-6-1.53-8.91-2.33-29.39-7.9-56.18-17.47-82.18-26.74-43.65-15.58-85.55-30.54-134.12-35.44l-2.34-.22a333.73,333.73,0,0,0-58.26-.34c-10.83.87-21.74,1.72-32.64,2.57l-4.09.31c-16.37,1.27-32.69,2.51-48.71,3.72-41.87,3.17-85.17,6.45-127.66,10.1-26.26,2.25-51.81,5.67-76.52,9-55.89,7.47-108.67,14.54-167.07,8.76-61.23-6.05-123.14-5.42-183-4.81-36.12.37-73.47.75-110.51-.32-7.94-.23-26.27-1.32-51.63-2.82-65.46-3.88-175-10.38-272.36-12.11-92.19-1.65-152.41,1.42-179.78,9.14q-11.53,3.24-15.28,7.59a6.59,6.59,0,0,0-1.66,5.88v.07l.07,0a154.9,154.9,0,0,0,16.86,4.93c48.87,11.47,109.54,3.25,168.41-4.72,44.34-6,86.23-11.67,123-9.45,20.36,1.23,40.41,2.7,59.8,4.13,69.81,5.12,135.76,10,208,3.33,56.23-5.16,114.75.12,171.35,5.23,18.16,1.63,36.93,3.33,55.15,4.62,12.57.89,25.74,2.93,38.77,5.16l2.69.47c2.59.44,5.17.9,7.74,1.35,23.51,4.12,47.81,8.39,70.2,7.45,13.86-.59,27.66-3.22,41.27-6.64l1.17-.29c8.71-2.21,17.35-4.72,25.87-7.2,16.66-4.84,33.88-9.86,51-12.42,81.5-12.19,154.78-22.19,226.39-21,39.48.67,75.19,4.68,109.17,12.24a430.4,430.4,0,0,1,106.27,38.48C1414,261,1435.27,267.52,1455.75,270a161.94,161.94,0,0,0,19.55,1.17c46.17,0,89.5-19.12,139.5-41.18,7.5-3.31,14.93-6.77,22.11-10.12,28.67-13.37,55.75-26,88.13-29.9l1.18-.13c.28,0,.57-.07.85-.09,14.65-1.58,29.43-1.09,44.06.09l.91.08h0l1.42.11c.22,0,.45,0,.67.06,6.63.58,13.23,1.28,19.76,2,15.08,1.59,30.48,3.22,45.94,3.3h.66c2.89,0,5.79,0,8.69-.16a3.05,3.05,0,0,0,.43,0c2.3-.09,4.59-.22,6.89-.4l.35,0q4.44-.36,8.86-1l.22,0Zm-9.22.93-.35,0c-2.32.18-4.65.31-7,.4a3.12,3.12,0,0,1-.43,0c-3,.12-6,.16-9,.14h-.67c-15.24-.13-30.41-1.74-45.28-3.31-6.33-.67-12.71-1.35-19.13-1.91l-.67-.06-1.11-.09-1-.08c-14.65-1.21-29.47-1.76-44.17-.27l-.86.1c-.67.06-1.35.14-2,.22-32.43,3.91-59.52,16.55-88.21,29.93-7.18,3.35-14.61,6.81-22.1,10.12-57,25.13-105.25,46.44-159,40-20.46-2.46-41.7-8.94-64.49-20.77a430.64,430.64,0,0,0-106.33-38.51c-34-7.56-69.73-11.57-109.23-12.25q-6-.1-12.07-.1c-67.8,0-137.42,9.55-214.36,21-17.18,2.57-34.41,7.59-51.08,12.44-8.89,2.59-17.91,5.21-27,7.48l-1.16.29c-13.23,3.28-26.63,5.78-40.08,6.34-22.36.94-46.65-3.32-70.14-7.45l-5.09-.89h-.06l-2.68-.47c-13.88-2.41-28-4.66-41.4-5.61-18.22-1.3-37-3-55.15-4.63-56.61-5.11-115.14-10.39-171.39-5.22-72.18,6.62-138.11,1.78-207.91-3.34-19.39-1.42-39.44-2.89-59.81-4.12-36.81-2.23-78.71,3.44-123.07,9.45-58.87,8-119.53,16.19-168.37,4.72a156.68,156.68,0,0,1-16.71-4.89,6.38,6.38,0,0,1,1.63-5.6q3.69-4.29,15.08-7.52c27.25-7.69,87.47-10.76,179.78-9.12C202,202.74,311.54,209.23,377,213.11c25.36,1.5,43.69,2.59,51.64,2.82,37,1.08,74.39.69,110.51.33,59.87-.61,121.77-1.24,183,4.81,58.43,5.77,111.23-1.29,167.13-8.77,24.71-3.31,50.26-6.73,76.51-9,42.49-3.65,85.79-6.93,127.66-10.1,17.4-1.32,35.17-2.66,53-4l4.19-.33q14.19-1.1,28.3-2.24a333.37,333.37,0,0,1,55.88.13l2.43.22c49.5,4.66,92,19.83,136.3,35.64,26,9.28,52.85,18.86,82.27,26.76q4.38,1.19,8.84,2.31c11.85,3,24.54,3.67,38.79,2.06,12.7-1.44,26.36-4.67,41.77-9.88,28.63-9.69,59.22-25,88.8-39.77,24.43-12.22,49.34-24.67,73.71-34.3l1.32-.51c17.25-6.74,34.21-12,50.54-14.79,21.42-3.6,40-2.65,56.79,2.92a92.75,92.75,0,0,1,17.11,7.66l.65.38c11.46,6.69,21.83,16,31.4,28.11Q1861,194.16,1856.59,194.51Z"/><path class="cls-2" d="M1772.06,189.64l1,.08c1.18-.22,2.34-.43,3.5-.62.65-.2,1.29-.38,1.92-.55C1776.33,188.86,1774.21,189.22,1772.06,189.64ZM1410.33,295.42l1.34.86q7.13,3.06,14.61,6a136.36,136.36,0,0,0,29.47,7.81v-.26a136.7,136.7,0,0,1-29.38-7.79C1420.87,299.88,1415.53,297.67,1410.33,295.42Zm-159.69-78.91c-60.64-7.64-126.72.26-190.62,7.91-29.49,3.52-57.34,6.86-84.8,8.78-36.75,2.58-70.23,4.74-102.83,5.82l-1.17.29c33-1.07,66.82-3.25,104-5.86,27.47-1.92,55.32-5.25,84.81-8.78,63.89-7.64,130-15.55,190.55-7.91,42.77,5.39,81,24.1,118,42.18,27.92,13.65,56.62,27.68,87.12,35.82v-.27c-30.45-8.13-59.12-22.15-87-35.78C1331.72,240.62,1293.44,221.91,1250.64,216.51Zm-53.93,6.86c-62.81,3.2-128,13.88-191,24.22-20.64,3.38-42,6.88-62.68,10-101.13,15.31-176.29,16.9-277.29,5.85-72.21-7.9-138.05-13.58-212.76-3.1-70,9.82-131,.31-195.69-9.77-29.58-4.61-60.17-9.38-92.21-12.29-26.2-2.39-59.86,2.43-95.5,7.53L57.9,247.49c1.16-.09,2.31-.16,3.45-.23l8.24-1.18c35.62-5.1,69.27-9.91,95.44-7.53,32,2.91,62.61,7.68,92.19,12.29C321.89,260.92,383,270.44,453,260.62c74.68-10.48,140.5-4.8,212.69,3.09,101,11.06,176.2,9.47,277.36-5.85,20.69-3.13,42-6.63,62.68-10,63-10.33,128.2-21,191-24.22,8-.41,15.77-.45,23.4-.12l2-.17c-4-.21-8.07-.31-12.18-.31Q1203.44,223,1196.71,223.37Zm681.22-3.47a125.6,125.6,0,0,0-21.07-25.15,2.91,2.91,0,0,0-.27-.24c-36.21-32.34-81.45-25.88-129.56-5l-.81.35c-29.11,12.69-59.27,30.6-89.08,48.31-28.47,16.91-57.9,34.39-85.07,46.23-14.6,6.37-27.47,10.68-39.35,13.19-13.31,2.8-25.06,3.3-35.94,1.51-7.11-1.17-14.12-2.72-21-4.57-30.45-8.13-59.12-22.15-87-35.78-37-18.09-75.3-36.8-118.1-42.2-60.64-7.64-126.72.26-190.62,7.91-29.49,3.52-57.34,6.86-84.8,8.78-36.75,2.58-70.23,4.74-102.83,5.82l-1.21,0A1083.31,1083.31,0,0,1,752,236.88c-.88-.06-1.76-.12-2.65-.2q-10.26-.8-20.78-1.83c-41.14-4.06-87-6.2-132.83-6.2h-.66c-46.06,0-92.31,2.21-133.74,6.34-83.81,8.35-154.67,3.43-248.74-7.89-62-7.47-122.86-1.31-181.7,4.65-34.53,3.49-70.07,7.09-106,8q-8.31.22-16.64.22h-.45l.38.24a84.22,84.22,0,0,0,16.71,7.74c15,5.16,33.58,7.52,56.17,7.2l5.35-.12,2.51-.09c22.27-.86,45.91-3.92,69.22-7.2l3.23-.46,8.24-1.18c35.62-5.1,69.27-9.91,95.44-7.53,32,2.91,62.61,7.68,92.19,12.29C321.89,260.92,383,270.44,453,260.62c74.68-10.48,140.5-4.8,212.69,3.09,101,11.06,176.2,9.47,277.36-5.85,20.69-3.13,42-6.63,62.68-10,63-10.33,128.2-21,191-24.22,8-.41,15.77-.45,23.4-.12.66,0,1.32.05,2,.09a222.58,222.58,0,0,1,60.22,11.52c25,8.38,47.77,20.32,71.82,33,17.67,9.28,35.82,18.81,56.06,27.58l1.47.63q7.13,3.06,14.61,6a136.36,136.36,0,0,0,29.47,7.81,140.89,140.89,0,0,0,21,1.54c57.08,0,113.84-32.73,169.14-64.61,41.67-24,81-46.71,119.84-55.74q3.21-.75,6.35-1.35h0l1-.18c1.18-.22,2.34-.43,3.5-.62l2-.3c15.82-2.37,30.44-2,44.39,1.19a106.74,106.74,0,0,1,16.35,5.1l.63.25a117.68,117.68,0,0,1,24.49,13.75c.27.19.55.39.82.6a150.93,150.93,0,0,1,12.59,10.38l.74.68Zm-13.43-11-.82-.58a117.14,117.14,0,0,0-23.18-13c-.21-.1-.41-.18-.62-.26a107.68,107.68,0,0,0-17-5.35,117.87,117.87,0,0,0-42.43-1.49l-2,.3c-2.11.31-4.23.67-6.38,1.09l-.93.18q-2.72.54-5.49,1.18c-38.85,9-78.23,31.74-119.92,55.77-62,35.77-125.9,72.59-190,63a136.7,136.7,0,0,1-29.38-7.79c-5.5-2.13-10.84-4.34-16-6.59l-1.44-.62c-19.66-8.59-37.37-17.9-54.63-27-24.06-12.64-46.79-24.58-71.86-33a223.16,223.16,0,0,0-58.31-11.43l-1.95-.11c-4-.21-8.07-.31-12.18-.31q-6.53,0-13.25.35c-62.81,3.2-128,13.88-191,24.22-20.64,3.38-42,6.88-62.68,10-101.13,15.31-176.29,16.9-277.29,5.85-72.21-7.9-138.05-13.58-212.76-3.1-70,9.82-131,.31-195.69-9.77-29.58-4.61-60.17-9.38-92.21-12.29-26.2-2.39-59.86,2.43-95.5,7.53L57.9,247.49l-3.54.49c-21.11,3-42.43,5.62-62.68,6.56h0l-2.77.12q-4,.15-7.86.21c-22.6.33-41.16-2-56.16-7.21a83.93,83.93,0,0,1-16.19-7.45q8.1,0,16.19-.22c35.95-.9,71.5-4.49,106-8,58.82-5.95,119.65-12.11,181.64-4.65,94.09,11.33,165,16.25,248.8,7.89,41.42-4.12,87.65-6.32,133.71-6.34h.66c45.77,0,91.68,2.15,132.8,6.2q11.94,1.18,23.5,2.05l2.64.2h.06a1086.88,1086.88,0,0,0,115.31,2l1.2,0c33-1.07,66.82-3.25,104-5.86,27.47-1.92,55.32-5.25,84.81-8.78,63.89-7.64,130-15.55,190.55-7.91,42.77,5.39,81,24.1,118,42.18,27.92,13.65,56.62,27.68,87.12,35.82,6.9,1.84,13.89,3.38,21,4.55,10.91,1.8,22.7,1.3,36-1.52,11.9-2.51,24.79-6.82,39.41-13.19,27.17-11.85,56.62-29.34,85.09-46.25,30.06-17.86,60.46-35.91,89.8-48.62l.82-.36c47.65-20.49,92.45-26.72,128.35,5.17l.27.24a124.13,124.13,0,0,1,20.66,24.42A149.09,149.09,0,0,0,1864.5,208.89Z"/><path class="cls-2" d="M1455.75,294.76v15a136.7,136.7,0,0,1-29.38-7.79c-5.5-2.13-10.84-4.34-16-6.59-9.54-6.15-18.85-12.68-28-19.1-24.47-17.17-49.77-34.93-78.53-44.79-25.71-8.83-53.27-10.47-81.66-8.2-4-.21-8.07-.31-12.18-.31q-6.53,0-13.25.35c-62.81,3.2-128,13.88-191,24.22-20.64,3.38-42,6.88-62.68,10-101.13,15.31-176.29,16.9-277.29,5.85-72.21-7.9-138.05-13.58-212.76-3.1-70,9.82-131,.31-195.69-9.77-29.58-4.61-60.17-9.38-92.21-12.29-26.2-2.39-59.86,2.43-95.5,7.53L57.9,247.49c-22.09,1.46-45,3.84-69,7.17q-4,.15-7.86.21c-22.6.33-41.16-2-56.16-7.21V240c35.95-.9,71.5-4.49,106-8,58.82-5.95,119.65-12.11,181.64-4.65,94.09,11.33,165,16.25,248.8,7.89,41.42-4.12,87.65-6.32,133.71-6.34h.66c45.77,0,91.68,2.15,132.8,6.2q11.94,1.18,23.5,2.05c2.59.44,5.17.9,7.74,1.35,23.51,4.12,47.81,8.39,70.2,7.45,13.86-.59,27.66-3.22,41.27-6.64,33-1.07,66.82-3.25,104-5.86,27.47-1.92,55.32-5.25,84.81-8.78,63.89-7.64,130-15.55,190.55-7.91,42.77,5.39,81,24.1,118,42.18C1396.55,272.59,1425.25,286.62,1455.75,294.76Z"/></g></svg>